# xmcd
#
# Track frame offsets: 
#        150
#        15435
#        28850
#        41745
#        52192
#        67147
#        76720
#        87080
#        99462
#        110754
#        120537
#        138620
#
# Disc length: 2001 seconds
#
# Revision: 1
# Processed by: cddbd v1.5.2PL0 Copyright (c) Steve Scherf et al.
# Submitted via: ExactAudioCopy v1.0b6
#
DISCID=a107cf0c
DTITLE=Patsy Cline Tribute - Tribute To Patsy Cline (Instrumentals)
DYEAR=1998
DGENRE=Country
TTITLE0=Crazy
TTITLE1=She's Got You
TTITLE2=I Fall To Pieces
TTITLE3=Blue Moon Of Kentucky
TTITLE4=So Wrong
TTITLE5=Back In Baby's Arms
TTITLE6=Have You Ever Been Lonely
TTITLE7=Walkin' After Midnight
TTITLE8=Leavin' On Your Mind
TTITLE9=Three Cigarettes In An Ashtray
TTITLE10=Faded Love
TTITLE11=Sweet Dreams
EXTD=YEAR: 1998
EXTT0=
EXTT1=
EXTT2=
EXTT3=
EXTT4=
EXTT5=
EXTT6=
EXTT7=
EXTT8=
EXTT9=
EXTT10=
EXTT11=
PLAYORDER=
